<svg width="52" height="52" viewBox="0 0 52 52" fill="none" xmlns="http://www.w3.org/2000/svg">
<path d="M37.284 52H14.742C5.9254 52 0 45.825 0 36.634V15.392C0 6.1854 5.9254 0 14.742 0H37.284C46.085 0 52 6.1854 52 15.392V36.634C52 45.825 46.085 52 37.284 52ZM24.05 20.098V36.608C24.05 37.1254 24.2554 37.6217 24.621 37.9878C24.9866 38.3539 25.4826 38.5599 26 38.5606C26.2571 38.5634 26.5121 38.5148 26.7501 38.4176C26.9881 38.3204 27.2043 38.1767 27.386 37.9948C27.5677 37.8128 27.7111 37.5965 27.808 37.3583C27.9049 37.1202 27.9531 36.8651 27.95 36.608V20.098L34.372 26.5434C34.7394 26.9061 35.2337 27.1113 35.75 27.1154C36.2647 27.1037 36.7563 26.8996 37.128 26.5434C37.4924 26.1779 37.697 25.6828 37.697 25.1667C37.697 24.6506 37.4924 24.1555 37.128 23.79L27.378 13.988C27.0048 13.6374 26.512 13.4422 26 13.4422C25.488 13.4422 24.9952 13.6374 24.622 13.988L14.872 23.79C14.5089 24.1562 14.3051 24.651 14.3051 25.1667C14.3051 25.6824 14.5089 26.1772 14.872 26.5434C15.2432 26.9069 15.7421 27.1105 16.2617 27.1105C16.7813 27.1105 17.2802 26.9069 17.6514 26.5434L24.0448 20.1032L24.05 20.098Z" fill="#FFBB0D"/>
</svg>
