<svg width="43" height="53" viewBox="0 0 43 53" fill="none" xmlns="http://www.w3.org/2000/svg">
<path d="M15.0358 17.9814V52.9206H6.77246V20.1459L15.0358 17.9814Z" fill="#0F3090"/>
<path d="M35.5973 1.78516V52.9502H27.334V3.94959L35.5973 1.78516Z" fill="#0F3090"/>
<path d="M6.77246 33.0728L15.0358 30.8936V39.2653L6.77246 41.4298V33.0728Z" fill="#0F3090"/>
<path d="M35.5973 24.8125V33.8671L27.334 36.0316V26.9794L35.5973 24.8125Z" fill="#0F3090"/>
<path d="M42.3696 22.1621V30.5339L35.5971 32.3187L6.77255 39.8844L0 41.6667V33.3097L0.897923 33.0656L6.77255 31.5274L35.5971 23.9469L42.3696 22.1621Z" fill="#0F3090"/>
<path d="M15.0358 7.19824V15.5552L6.77246 17.7221V9.36268L15.0358 7.19824Z" fill="#0F3090"/>
<path d="M42.37 0V8.37179L35.5974 10.1566L20.5615 14.1058V5.73404L35.5974 1.7848L42.37 0Z" fill="#0F3090"/>
</svg>
