<svg width="25" height="25" viewBox="0 0 25 25" fill="none" xmlns="http://www.w3.org/2000/svg">
<g clip-path="url(#clip0_209_621)">
<path d="M24.4785 12.2392C24.4785 5.47969 18.9988 0 12.2392 0C5.47969 0 0 5.47969 0 12.2392C0 18.3481 4.47569 23.4116 10.3269 24.3298V15.7772H7.21924V12.2392H10.3269V9.54279C10.3269 6.47533 12.1541 4.78096 14.9498 4.78096C16.2885 4.78096 17.6895 5.02 17.6895 5.02V8.03201H16.1462C14.6259 8.03201 14.1516 8.97553 14.1516 9.94439V12.2392H17.5461L17.0035 15.7772H14.1516V24.3298C20.0028 23.4116 24.4785 18.3481 24.4785 12.2392Z" fill="#FFBB0D"/>
</g>
<defs>
<clipPath id="clip0_209_621">
<rect width="24.4785" height="24.4785" fill="white"/>
</clipPath>
</defs>
</svg>
