<svg width="536" height="390" viewBox="0 0 536 390" fill="none" xmlns="http://www.w3.org/2000/svg">
<g clip-path="url(#clip0_209_370)">
<rect width="536" height="390" fill="#0F3090"/>
<path d="M7.03265 0.490234C4.04877 0.490234 1.62988 2.91316 1.62988 5.90198V384.312C1.62988 387.301 4.04878 389.723 7.03265 389.723H530.326C533.31 389.723 535.729 387.301 535.729 384.312V5.90193C535.729 2.91314 533.31 0.490234 530.326 0.490234H7.03265Z" stroke="white" stroke-opacity="0.5" stroke-width="0.669748"/>
<mask id="mask0_209_370" style="mask-type:luminance" maskUnits="userSpaceOnUse" x="12" y="11" width="29" height="7">
<path d="M40.393 11.125H12.2461V17.3903H40.393V11.125Z" fill="white"/>
</mask>
<g mask="url(#mask0_209_370)">
<path d="M15.3735 11.125H15.3735C13.6463 11.125 12.2461 12.5275 12.2461 14.2576V14.2576C12.2461 15.9878 13.6463 17.3903 15.3735 17.3903H15.3735C17.1008 17.3903 18.501 15.9878 18.501 14.2576V14.2576C18.501 12.5275 17.1008 11.125 15.3735 11.125Z" fill="#EB6A5D"/>
<path d="M26.3198 11.125H26.3198C24.5926 11.125 23.1924 12.5275 23.1924 14.2576V14.2576C23.1924 15.9878 24.5926 17.3903 26.3198 17.3903H26.3198C28.0471 17.3903 29.4473 15.9878 29.4473 14.2576V14.2576C29.4473 12.5275 28.0471 11.125 26.3198 11.125Z" fill="#F3BE4F"/>
<path d="M37.2661 11.125H37.2661C35.5389 11.125 34.1387 12.5275 34.1387 14.2576V14.2576C34.1387 15.9878 35.5389 17.3903 37.2661 17.3903H37.2661C38.9934 17.3903 40.3936 15.9878 40.3936 14.2576V14.2576C40.3936 12.5275 38.9934 11.125 37.2661 11.125Z" fill="#64C354"/>
</g>
<path d="M0.237305 26.7871H535.669V27.3565H0.237305V26.7871Z" fill="white" fill-opacity="0.5"/>
</g>
<defs>
<clipPath id="clip0_209_370">
<rect width="536" height="390" fill="white"/>
</clipPath>
</defs>
</svg>
